Coordinates
version=1
nRows=5
nColumns=40
inDegrees=yes

Units are S.I. units (second, meters, Newtons, ...)
Angles are in degrees.

endheader
time	pelvis_tilt	pelvis_list	pelvis_rotation	pelvis_tx	pelvis_ty	pelvis_tz	hip_flexion_r	hip_adduction_r	hip_rotation_r	knee_angle_r	knee_angle_r_beta	ankle_angle_r	subtalar_angle_r	mtp_angle_r	hip_flexion_l	hip_adduction_l	hip_rotation_l	knee_angle_l	knee_angle_l_beta	ankle_angle_l	subtalar_angle_l	mtp_angle_l	lumbar_extension	lumbar_bending	lumbar_rotation	arm_flex_r	arm_add_r	arm_rot_r	elbow_flex_r	pro_sup_r	wrist_flex_r	wrist_dev_r	arm_flex_l	arm_add_l	arm_rot_l	elbow_flex_l	pro_sup_l	wrist_flex_l	wrist_dev_l
      1.55000000	     -4.03407084	      0.21058715	     -1.29610123	     -0.28177061	      0.88145677	     -1.41353787	      3.70768759	     -3.07888424	     -7.06019972	    -43.97577468	     -0.76752206	     -3.87273343	    -10.62166511	     -1.87628392	     28.67592412	      2.76751698	     11.75077414	    -30.78702417	     -0.53733494	      4.13543567	     12.38498865	      4.66611915	     -0.13574095	     -4.63188462	      0.67209753	      1.30551980	     -7.34283081	     -9.51107684	     33.70496270	     89.95437384	      0.00000000	      0.00000000	     -4.24842941	      9.43073027	     16.38353687	     23.95559128	     89.95437384	      0.00000000	      0.00000000
      1.56000000	     -3.96385892	      0.40128078	     -1.22498068	     -0.27418294	      0.88203597	     -1.41602553	      4.76948722	     -3.57660165	     -7.30593411	    -46.16074881	     -0.80565705	     -6.32412987	    -11.52404507	     -0.91822547	     28.06253560	      2.39169814	     11.88223300	    -30.84256505	     -0.53830431	      4.50897757	     12.05434562	      4.57762304	     -0.18131498	     -4.85200937	      0.48810130	      1.01942189	     -7.36930310	     -9.18099023	     33.37216020	     89.95437384	      0.00000000	      0.00000000	     -3.95767890	      9.53451910	     16.24563102	     24.22145830	     89.95437384	      0.00000000	      0.00000000
      1.57000000	     -3.90768106	      0.58104282	     -1.15986957	     -0.26694472	      0.88252637	     -1.41831685	      5.92494563	     -3.95132938	     -7.32929857	    -48.51668821	     -0.84677595	     -8.57873060	    -12.65010117	      0.65528591	     27.45078604	      2.05059954	     12.08080074	    -30.81404249	     -0.53780650	      4.74889735	     11.74727943	      4.51816426	     -0.28145590	     -5.07218249	      0.36751936	      0.73927334	     -7.37995679	     -8.96988666	     33.04278152	     89.95437384	      0.00000000	      0.00000000	     -3.59648538	      9.69599623	     15.99467145	     24.58792868	     89.95437384	      0.00000000	      0.00000000
      1.58000000	     -3.56302816	      0.30335185	     -0.77287099	     -0.26010776	      0.88338514	     -1.42061852	      6.59772036	     -3.75622962	     -7.50775179	    -50.60049930	     -0.88314532	     -9.17000771	    -12.39362501	      0.74700667	     26.67388536	      2.15308661	     12.08250130	    -30.94138821	     -0.54002910	      4.94134443	     11.30684071	      4.38181983	     -0.83483112	     -4.79898966	     -0.16914100	      0.57969695	     -7.35302939	     -8.85115162	     32.88511020	     89.95437384	      0.00000000	      0.00000000	     -3.12033325	      9.82578787	     15.87296815	     24.92753549	     89.95437384	      0.00000000	      0.00000000
      1.59000000	     -3.20648305	      0.14413650	     -0.56017905	     -0.25297580	      0.88423107	     -1.42283766	      7.34591147	     -3.84698018	     -7.93060480	    -52.80708247	     -0.92165746	     -9.85481433	    -12.47577740	      0.89845825	     25.79824635	      2.17545854	     12.15821041	    -31.03836155	     -0.54172160	      5.29511402	     10.85476256	      4.23140804	     -1.31940062	     -4.62426493	     -0.46127301	      0.42144919	     -7.36986336	     -8.71781298	     32.48344336	     89.95437384	      0.00000000	      0.00000000	     -2.62405977	      9.93351492	     15.77277628	     25.21678192	     89.95437384	      0.00000000	      0.00000000
